<svg xmlns="http://www.w3.org/2000/svg" viewBox="0 0 500 500">
  <defs/>
  <path fill="#fff" d="M325.57,301.28 A51.75 51.75 0 0 0 335.91,198.82 A73.71 73.71 0 0 0 204.1,179.82 A62.24 62.24 0 1 0 184.92,301.26"/>
  <path fill="#231815" d="M325.57,308.78 A59.9 59.9 0 0 0 384.36,256.44 C388.06,226.44 367.36,197.97 337.9,191.58 L343.14,196.82 C334.07,168.43 309.97,146.01 280.33,140.82 A82.4 82.4 0 0 0 197.62,176.07 L206.09,172.62 C174.69,162.93 139.74,176.39 123.83,205.39 C108.67,233.04 114.21,268.76 137.49,290.18 A70.91 70.91 0 0 0 184.91,308.79 C194.57,308.9 194.57,293.9 184.91,293.79 C160.41,293.52 138.55,277.19 132.07,253.39 A55.22 55.22 0 0 1 157.66,191.57 C171.24,183.74 187.2,182.48 202.09,187.08 C205.43,188.08 208.72,186.34 210.56,183.63 C225.2,162.09 251.98,150.49 277.71,155.53 A67.05 67.05 0 0 1 328.66,200.82 A7.54 7.54 0 0 0 333.9,206.06 C356.43,210.95 372.4,231.81 369.51,255.06 C366.77,277.15 347.51,293.47 325.51,293.76 C315.87,293.89 315.84,308.89 325.51,308.76 Z"/>
  <path fill="#2ea7e0" d="M212.2,265.32 L204.83,246.12 C203.38,242.34 199.83,239.73 195.6,240.88 C191.99,241.88 188.9,246.3 190.36,250.11 L197.73,269.31 C199.18,273.09 202.73,275.7 206.96,274.55 C210.57,273.55 213.66,269.13 212.2,265.32 Z"/>
  <path fill="#2ea7e0" d="M250.16,265.33 L242.79,246.13 C241.34,242.35 237.79,239.74 233.56,240.89 C229.95,241.89 226.86,246.31 228.32,250.12 L235.69,269.32 C237.14,273.1 240.69,275.71 244.92,274.56 C248.53,273.56 251.62,269.14 250.16,265.33 Z"/>
  <path fill="#2ea7e0" d="M288.12,265.33 L280.75,246.13 C279.3,242.35 275.75,239.74 271.52,240.89 C267.91,241.89 264.82,246.31 266.28,250.12 L273.65,269.32 C275.1,273.1 278.65,275.71 282.88,274.56 C286.49,273.56 289.58,269.14 288.12,265.33 Z"/>
  <path fill="#2ea7e0" d="M228.67,308.21 L221.29,289 C219.84,285.22 216.29,282.61 212.06,283.76 C208.45,284.76 205.36,289.18 206.82,292.99 L214.19,312.19 C215.64,315.97 219.19,318.58 223.42,317.43 C227.03,316.43 230.12,312.01 228.66,308.2 Z"/>
  <path fill="#2ea7e0" d="M266.63,308.21 L259.26,289 C257.81,285.22 254.26,282.61 250.03,283.76 C246.42,284.76 243.33,289.18 244.79,292.99 L252.16,312.19 C253.61,315.97 257.16,318.58 261.39,317.43 C265,316.43 268.09,312.01 266.63,308.2 Z"/>
  <path fill="#2ea7e0" d="M304.59,308.21 L297.22,289 C295.77,285.22 292.22,282.61 287.99,283.76 C284.38,284.76 281.29,289.18 282.75,292.99 L290.12,312.19 C291.57,315.97 295.12,318.58 299.35,317.43 C302.96,316.43 306.05,312.01 304.59,308.2 Z"/>
  <path fill="#2ea7e0" d="M245.14,351.09 L237.77,331.89 C236.32,328.11 232.77,325.5 228.54,326.65 C224.93,327.65 221.84,332.07 223.3,335.88 L230.67,355.08 C232.12,358.86 235.67,361.47 239.9,360.32 C243.51,359.32 246.6,354.9 245.14,351.09 Z"/>
  <path fill="#2ea7e0" d="M283.1,351.09 L275.73,331.89 C274.28,328.11 270.73,325.5 266.5,326.65 C262.89,327.65 259.8,332.07 261.26,335.88 L268.63,355.08 C270.08,358.86 273.63,361.47 277.86,360.32 C281.47,359.32 284.56,354.9 283.1,351.09 Z"/>
  <path fill="#2ea7e0" d="M321.06,351.09 L313.69,331.89 C312.24,328.11 308.69,325.5 304.46,326.65 C300.85,327.65 297.76,332.07 299.22,335.88 L306.59,355.08 C308.04,358.86 311.59,361.47 315.82,360.32 C319.43,359.32 322.52,354.9 321.06,351.09 Z"/>
</svg>

